<svg width="18" height="18" viewBox="0 0 18 18" fill="none" xmlns="http://www.w3.org/2000/svg">
<g clip-path="url(#clip0_6284_5982)">
<path d="M13.1611 1.62777C13.1609 1.90723 13.0497 2.17516 12.852 2.37264L7.46082 7.76378C7.29764 7.92691 7.16819 8.1206 7.07988 8.33377C6.99156 8.54694 6.94611 8.77541 6.94611 9.00615C6.94611 9.23689 6.99156 9.46537 7.07988 9.67854C7.16819 9.89171 7.29764 10.0854 7.46082 10.2485L12.8449 15.6326C13.0369 15.8314 13.1432 16.0977 13.1408 16.3741C13.1384 16.6504 13.0275 16.9148 12.8321 17.1102C12.6367 17.3057 12.3723 17.4165 12.0959 17.4189C11.8195 17.4213 11.5533 17.3151 11.3545 17.1231L5.97038 11.7432C5.24643 11.0178 4.83984 10.0348 4.83984 9.01002C4.83984 7.98519 5.24643 7.00223 5.97038 6.27686L11.3615 0.882207C11.5089 0.734698 11.6968 0.634233 11.9013 0.593522C12.1058 0.552812 12.3179 0.573686 12.5105 0.653505C12.7032 0.733323 12.8678 0.868497 12.9837 1.04192C13.0995 1.21535 13.1612 1.41923 13.1611 1.62777V1.62777Z" fill="#374957"/>
</g>
<defs>
<clipPath id="clip0_6284_5982">
<rect width="16.8649" height="16.8649" fill="white" transform="translate(0.566406 0.570312)"/>
</clipPath>
</defs>
</svg>
